# AST/ASF file generated using VICON BodyLanguage
# -----------------------------------------------
:version 1.10
:name VICON
:units
  mass 1.0
  length 0.45
  angle deg
:documentation
   .ast/.asf automatically generated from VICON data using
   VICON BodyBuilder and BodyLanguage model FoxedUp or BRILLIANT.MOD
:root
   order TX TY TZ RX RY RZ
   axis XYZ
   position 0 0 0  
   orientation 0 0 0 
:bonedata
  begin
     id 1 
     name lhipjoint
     direction 0.627457 -0.725269 0.283342 
     length 2.53237 
     axis 0 0 0  XYZ
  end
  begin
     id 2 
     name lfemur
     direction 0.34202 -0.939693 0  
     length 7.32496  
     axis 0 0 20  XYZ
    dof rx ry rz
    limits (-160.0 20.0)
           (-70.0 70.0)
           (-60.0 70.0)
  end
  begin
     id 3 
     name ltibia
     direction 0.34202 -0.939693 0   
     length 7.69674   
     axis 0 0 20   XYZ
    dof rx
    limits (-10.0 170.0)
  end
  begin
     id 4 
     name lfoot
     direction 0.127289 -0.349722 0.928166   
     length 1.8612   
     axis -90 7.62852e-016 20   XYZ
    dof rx rz
    limits (-45.0 90.0)
           (-70.0 20.0)
  end
  begin
     id 5 
     name ltoes
     direction 1.53561e-011 -4.21864e-011 1   
     length 0.925608   
     axis -90 7.62852e-016 20   XYZ
    dof rx
    limits (-90.0 20.0)
  end
  begin
     id 6 
     name rhipjoint
     direction -0.609094 -0.738725 0.288599   
     length 2.48624  
     axis 0 0 0  XYZ 
  end
  begin
     id 7 
     name rfemur
     direction -0.34202 -0.939693 0   
     length 7.44259   
     axis 0 0 -20   XYZ
    dof rx ry rz
    limits (-160.0 20.0)
           (-70.0 70.0)
           (-70.0 60.0)
  end
  begin
     id 8 
     name rtibia
     direction -0.34202 -0.939693 0   
     length 7.7781   
     axis 0 0 -20   XYZ
    dof rx
    limits (-10.0 170.0)
 end
 begin
     id 9 
     name rfoot
     direction -0.107015 -0.294021 0.949789   
     length 2.14741  
     axis -90 -7.62852e-016 -20   XYZ
    dof rx rz
    limits (-45.0 90.0)
           (-20.0 70.0)
  end
  begin
     id 10 
     name rtoes
     direction -1.53497e-011 -4.21924e-011 1   
     length 1.0706   
     axis -90 -7.62852e-016 -20   XYZ
    dof rx
    limits (-90.0 20.0)
  end
  begin
     id 11 
     name lowerback
     direction -0.0142066 0.998112 -0.0597545   
     length 1.86627   
     axis 0 0 0   XYZ
    dof rx ry rz
    limits (-20.0 45.0)
           (-30.0 30.0)
           (-30.0 30.0)
  end
  begin
     id 12 
     name upperback
     direction 0.00547294 0.999744 0.0219437   
     length 1.86272   
     axis 0 0 0   XYZ
    dof rx ry rz
    limits (-20.0 45.0)
           (-30.0 30.0)
           (-30.0 30.0)
  end
  begin
     id 13 
     name thorax
     direction 0.0116162 0.998704 0.0495538   
     length 1.8703   
     axis 0 0 0   XYZ
    dof rx ry rz
    limits (-20.0 45.0)
           (-30.0 30.0)
           (-30.0 30.0)
  end
  begin
     id 14 
     name lowerneck
     direction -0.0106574 0.998739 0.0490586   
     length 1.8074   
     axis 0 0 0   XYZ
    dof rx ry rz
    limits (-20.0 45.0)
           (-30.0 30.0)
           (-30.0 30.0)
  end
  begin
     id 15 
     name upperneck
     direction 0.030527 0.976587 -0.212944   
     length 1.80681   
     axis 0 0 0   XYZ
    dof rx ry rz
    limits (-20.0 45.0)
           (-30.0 30.0)
           (-30.0 30.0)
  end
  begin
     id 16
     name head
     direction 0.00869225 0.997035 -0.0764531  
     length 1.8313  
     axis 0 0 0   XYZ
    dof rx ry rz
    limits (-20.0 45.0)
           (-30.0 30.0)
           (-30.0 30.0)
  end
  begin
     id 17 
     name lclavicle
     direction 0.915958 0.399447 0.0382386  
     length 3.78965  
     axis 0 0 0   XYZ
    dof ry rz
    limits (-20.0 10.0)
           (0.0 20.0)
  end
  begin
     id 18 
     name lhumerus
     direction 1 -4.48967e-011 3.19303e-027   
     length 4.78095   
     axis -180 -30 -90   XYZ
    dof rx ry rz
    limits (-60.0 90.0)
           (-90.0 90.0)
           (-90.0 90.0)
  end
  begin
     id 19
     name lradius
     direction 1 -4.48967e-011 -3.77974e-027   
     length 3.58615   
     axis -180 -30 -90   XYZ
    dof rx
    limits (-10.0 170.0)
  end
  begin
     id 20
     name lwrist
     direction 1 -4.48927e-011 1.2807e-027   
     length 1.79307   
     axis 1.91374e-015 90 90   XYZ
    dof ry
    limits (-180.0 0.0)
 end
  begin
     id 21 
     name lhand
     direction 1 -4.49036e-011 2.5614e-027   
     length 0.659812   
     axis -1.63439e-015 90 90   XYZ
    dof rx rz
    limits (-90.0 90.0)
           (-45.0 45.0)
  end
  begin
     id 22 
     name lfingers
     direction 1 -4.49052e-011 5.1228e-027   
     length 0.531957   
     axis -3.26879e-015 90 90   XYZ
    dof rx
    limits (0.0 90.0)
  end
  begin
     id 23
     name lthumb
     direction 0.707107 -6.35012e-011 0.707107   
     length 0.763787   
     axis -90 45 2.85299e-015   XYZ
    dof rx rz
    limits (-45.0 45.0)
           (-45.0 45.0)
  end
  begin
     id 24 
     name rclavicle
     direction -0.895351 0.435135 0.0948887   
     length 3.70497  
     axis 0 0 0   XYZ 
    dof ry rz
    limits (-10.0 20.0)
           (-20.0 0.0)
  end
  begin
     id 25 
     name rhumerus
     direction -1 -4.48971e-011 2.38946e-027  
     length 4.48913   
     axis -180 30 90   XYZ
    dof rx ry rz
    limits (-90.0 60.0)
           (-90.0 90.0)
           (-90.0 90.0)
  end
  begin
     id 26 
     name rradius
     direction -1 -4.4895e-011 4.38668e-027   
     length 3.7051   
     axis -180 30 90   XYZ
    dof rx
    limits (-10.0 170.0)
  end
  begin
     id 27 
     name rwrist
     direction -1 -4.49007e-011 1.2807e-027   
     length 1.85255   
     axis 1.91374e-015 -90 -90   XYZ
    dof ry
    limits (-180.0 0.0)
  end
  begin
     id 28
     name rhand
     direction -1 -4.48851e-011 2.5614e-027   
     length 0.449136   
     axis -1.63439e-015 -90 -90   XYZ
    dof rx rz
    limits (-90.0 90.0)
           (-45.0 45.0)
  end
  begin
     id 29
     name rfingers
     direction -1 -4.49128e-011 5.1228e-027   
     length 0.362105   
     axis -3.26879e-015 -90 -90   XYZ
    dof rx
    limits (0.0 90.0)
  end
  begin
     id 30
     name rthumb
     direction -0.707107 -6.34851e-011 0.707107   
     length 0.519912   
     axis -90 -45 -2.85299e-015   XYZ
    dof rx rz
    limits (-45.0 45.0)
           (-45.0 45.0)
  end
:hierarchy
  begin
    root lhipjoint rhipjoint lowerback
    lhipjoint lfemur
    lfemur ltibia
    ltibia lfoot
    lfoot ltoes
    rhipjoint rfemur
    rfemur rtibia
    rtibia rfoot
    rfoot rtoes
    lowerback upperback
    upperback thorax
    thorax lowerneck lclavicle rclavicle
    lowerneck upperneck
    upperneck head
    lclavicle lhumerus
    lhumerus lradius
    lradius lwrist
    lwrist lhand lthumb
    lhand lfingers
    rclavicle rhumerus
    rhumerus rradius
    rradius rwrist
    rwrist rhand rthumb
    rhand rfingers
  end

#!OML:ASF I:\Actors\actors\Patient Classification 2\Patient 1\Session 1\actor1.ASF
:FULLY-SPECIFIED
:DEGREES
24
root -0.946977 18.1952 5.77212 1.86988 -1.48765 -5.12978
lowerback 1.71116 0.335805 2.99001
upperback -2.18385 0.579633 1.19431
thorax -3.18884 0.233116 -0.472741
lowerneck -8.10629 -2.33556 -2.61235
upperneck 16.8679 -3.65265 4.78335
head 6.59882 -1.54745 1.66712
rclavicle -6.12505e-015 3.18055e-015
rhumerus -47.2482 -1.90838 -88.4652
rradius 40.0889
rwrist 18.5158
rhand -8.14205 -26.313
rfingers 7.12502
rthumb 17.7722 -55.5209
lclavicle -6.12505e-015 3.18055e-015
lhumerus -42.8544 -0.347027 92.8845
lradius 37.5805
lwrist -5.94189
lhand -4.1293 -23.9601
lfingers 7.12502
lthumb 21.6298 4.85181
rfemur 0 0 0
rtibia 0
rfoot 0 0
rtoes 0
lfemur 15.6269 -7.24312 -11.6608
ltibia -18.1892
lfoot -3.9802 19.6795
ltoes -9.14073
25
root -0.947092 18.1954 5.7719 1.8712 -1.49501 -5.14944
lowerback 1.69599 0.339468 3.02015
upperback -2.17875 0.58462 1.19114
thorax -3.17459 0.235064 -0.492959
lowerneck -8.10836 -2.31944 -2.59698
upperneck 16.8694 -3.63563 4.79923
head 6.59897 -1.53693 1.67107
rclavicle 4.47266e-016 -1.39149e-015
rhumerus -47.2532 -1.97149 -88.4562
rradius 40.0902
rwrist 18.5316
rhand -8.12032 -26.3118
rfingers 7.12502
rthumb 17.7931 -55.5178
lclavicle 4.47266e-016 -1.39149e-015
lhumerus -42.8158 -0.348036 92.8767
lradius 37.5453
lwrist -5.90493
lhand -4.13928 -23.9141
lfingers 7.12502
lthumb 21.6202 4.89889
rfemur 0 0 0
rtibia 0
rfoot 0 0
rtoes 0
lfemur 15.621 -7.20038 -11.6349
ltibia -18.1763
lfoot -3.96699 19.6596
ltoes -9.1332
26
root -0.94747 18.1943 5.77185 1.86547 -1.48672 -5.13994
lowerback 1.69404 0.337255 3.00498
upperback -2.17916 0.580922 1.18458
thorax -3.17407 0.233501 -0.491048
lowerneck -8.11538 -2.3163 -2.55395
upperneck 16.8743 -3.6333 4.77328
head 6.60049 -1.53503 1.65573
rclavicle 8.94531e-016 -1.78906e-015
rhumerus -47.2456 -2.01045 -88.4641
rradius 40.0682
rwrist 18.5388
rhand -8.02906 -26.4143
rfingers 7.12502
rthumb 17.8809 -55.6123
lclavicle 8.94531e-016 -1.78906e-015
lhumerus -42.7829 -0.326668 92.8615
lradius 37.5031
lwrist -5.91683
lhand -4.10041 -23.8795
lfingers 7.12502
lthumb 21.6575 4.92918
rfemur 0 0 0
rtibia 0
rfoot 0 0
rtoes 0
lfemur 15.6252 -7.17329 -11.6439
ltibia -18.1756
lfoot -3.94807 19.6193
ltoes -9.15036
27
root -0.947755 18.1933 5.77104 1.84477 -1.46322 -5.11845
lowerback 1.71577 0.336386 2.9631
upperback -2.18255 0.579392 1.18368
thorax -3.19018 0.233497 -0.468635
lowerneck -8.09914 -2.33618 -2.5309
upperneck 16.8538 -3.65776 4.7414
head 6.5911 -1.54843 1.63975
rclavicle -4.17448e-015 5.56597e-015
rhumerus -47.2579 -2.02253 -88.4652
rradius 40.0649
rwrist 18.5474
rhand -8.00992 -26.4192
rfingers 7.12502
rthumb 17.8993 -55.6155
lclavicle -4.17448e-015 5.56597e-015
lhumerus -42.7706 -0.310227 92.867
lradius 37.4775
lwrist -5.90431
lhand -4.01392 -23.8658
lfingers 7.12502
lthumb 21.7406 4.93334
rfemur 0 0 0
rtibia 0
rfoot 0 0
rtoes 0
lfemur 15.6472 -7.16567 -11.6679
ltibia -18.1938
lfoot -3.92848 19.5673
ltoes -9.24366
28
root -0.94805 18.1933 5.76972 1.82055 -1.46295 -5.15104
lowerback 1.74466 0.346902 2.97467
upperback -2.19063 0.595839 1.20444
thorax -3.21451 0.241321 -0.4547
lowerneck -8.05475 -2.35071 -2.55507
upperneck 16.837 -3.67456 4.74468
head 6.57908 -1.55861 1.64384
rclavicle 1.27968e-015 -8.34896e-015
rhumerus -47.3211 -2.02249 -88.4436
rradius 40.1031
rwrist 18.5659
rhand -8.03675 -26.3328
rfingers 7.12502
rthumb 17.8735 -55.5314
lclavicle 1.27968e-015 -8.34896e-015
lhumerus -42.793 -0.317837 92.899
lradius 37.4786
lwrist -5.86474
lhand -3.99603 -23.81
lfingers 7.12502
lthumb 21.7578 4.98712
rfemur 0 0 0
rtibia 0
rfoot 0 0
rtoes 0
lfemur 15.6799 -7.16198 -11.6312
ltibia -18.2125
lfoot -3.9218 19.5654
ltoes -9.26694
